<mxfile host="app.diagrams.net" modified="2022-07-30T21:59:32.184Z" agent="5.0 (Windows NT 10.0; Win64; x64) AppleWebKit/537.36 (KHTML, like Gecko) Chrome/103.0.0.0 Safari/537.36" etag="KU69kTgfkHQ_s_xgdsJq" version="20.2.2" type="github">
  <diagram name="Page-1" id="c4acf3e9-155e-7222-9cf6-157b1a14988f">
    <mxGraphModel dx="2076" dy="1873" grid="1" gridSize="10" guides="1" tooltips="1" connect="1" arrows="1" fold="1" page="1" pageScale="1" pageWidth="850" pageHeight="1100" background="none" math="0" shadow="0">
      <root>
        <mxCell id="0" />
        <mxCell id="1" parent="0" />
        <mxCell id="17acba5748e5396b-20" value="User" style="swimlane;html=1;fontStyle=0;childLayout=stackLayout;horizontal=1;startSize=26;fillColor=none;horizontalStack=0;resizeParent=1;resizeLast=0;collapsible=1;marginBottom=0;swimlaneFillColor=#ffffff;rounded=0;shadow=0;comic=0;labelBackgroundColor=none;strokeWidth=1;fontFamily=Verdana;fontSize=10;align=center;" parent="1" vertex="1">
          <mxGeometry x="290" y="55" width="160" height="110" as="geometry">
            <mxRectangle x="350" y="42" width="60" height="30" as="alternateBounds" />
          </mxGeometry>
        </mxCell>
        <mxCell id="17acba5748e5396b-21" value="+ name: type" style="text;html=1;strokeColor=none;fillColor=none;align=left;verticalAlign=top;spacingLeft=4;spacingRight=4;whiteSpace=wrap;overflow=hidden;rotatable=0;points=[[0,0.5],[1,0.5]];portConstraint=eastwest;" parent="17acba5748e5396b-20" vertex="1">
          <mxGeometry y="26" width="160" height="26" as="geometry" />
        </mxCell>
        <mxCell id="17acba5748e5396b-24" value="+ email: type" style="text;html=1;strokeColor=none;fillColor=none;align=left;verticalAlign=top;spacingLeft=4;spacingRight=4;whiteSpace=wrap;overflow=hidden;rotatable=0;points=[[0,0.5],[1,0.5]];portConstraint=eastwest;" parent="17acba5748e5396b-20" vertex="1">
          <mxGeometry y="52" width="160" height="26" as="geometry" />
        </mxCell>
        <mxCell id="17acba5748e5396b-26" value="+ password: type" style="text;html=1;strokeColor=none;fillColor=none;align=left;verticalAlign=top;spacingLeft=4;spacingRight=4;whiteSpace=wrap;overflow=hidden;rotatable=0;points=[[0,0.5],[1,0.5]];portConstraint=eastwest;" parent="17acba5748e5396b-20" vertex="1">
          <mxGeometry y="78" width="160" height="26" as="geometry" />
        </mxCell>
        <mxCell id="TSLDRbt6V7hRxiRLUqcx-28" style="edgeStyle=orthogonalEdgeStyle;rounded=0;orthogonalLoop=1;jettySize=auto;html=1;exitX=0.5;exitY=0;exitDx=0;exitDy=0;entryX=0.476;entryY=1.002;entryDx=0;entryDy=0;entryPerimeter=0;" edge="1" parent="1" source="17acba5748e5396b-30" target="5d2195bd80daf111-18">
          <mxGeometry relative="1" as="geometry" />
        </mxCell>
        <mxCell id="17acba5748e5396b-30" value="App" style="swimlane;html=1;fontStyle=0;childLayout=stackLayout;horizontal=1;startSize=26;fillColor=none;horizontalStack=0;resizeParent=1;resizeLast=0;collapsible=1;marginBottom=0;swimlaneFillColor=#ffffff;rounded=0;shadow=0;comic=0;labelBackgroundColor=none;strokeWidth=1;fontFamily=Verdana;fontSize=10;align=center;" parent="1" vertex="1">
          <mxGeometry x="750" y="230" width="160" height="130" as="geometry" />
        </mxCell>
        <mxCell id="17acba5748e5396b-31" value="+ name: type" style="text;html=1;strokeColor=none;fillColor=none;align=left;verticalAlign=top;spacingLeft=4;spacingRight=4;whiteSpace=wrap;overflow=hidden;rotatable=0;points=[[0,0.5],[1,0.5]];portConstraint=eastwest;" parent="17acba5748e5396b-30" vertex="1">
          <mxGeometry y="26" width="160" height="26" as="geometry" />
        </mxCell>
        <mxCell id="17acba5748e5396b-32" value="+ icon: type" style="text;html=1;strokeColor=none;fillColor=none;align=left;verticalAlign=top;spacingLeft=4;spacingRight=4;whiteSpace=wrap;overflow=hidden;rotatable=0;points=[[0,0.5],[1,0.5]];portConstraint=eastwest;" parent="17acba5748e5396b-30" vertex="1">
          <mxGeometry y="52" width="160" height="26" as="geometry" />
        </mxCell>
        <mxCell id="17acba5748e5396b-33" value="+ state: type" style="text;html=1;strokeColor=none;fillColor=none;align=left;verticalAlign=top;spacingLeft=4;spacingRight=4;whiteSpace=wrap;overflow=hidden;rotatable=0;points=[[0,0.5],[1,0.5]];portConstraint=eastwest;" parent="17acba5748e5396b-30" vertex="1">
          <mxGeometry y="78" width="160" height="26" as="geometry" />
        </mxCell>
        <mxCell id="TSLDRbt6V7hRxiRLUqcx-6" style="edgeStyle=orthogonalEdgeStyle;rounded=0;orthogonalLoop=1;jettySize=auto;html=1;exitX=0.25;exitY=0;exitDx=0;exitDy=0;entryX=1;entryY=0.5;entryDx=0;entryDy=0;" edge="1" parent="1" source="5d2195bd80daf111-15" target="17acba5748e5396b-32">
          <mxGeometry relative="1" as="geometry" />
        </mxCell>
        <mxCell id="TSLDRbt6V7hRxiRLUqcx-18" style="edgeStyle=orthogonalEdgeStyle;rounded=0;orthogonalLoop=1;jettySize=auto;html=1;exitX=0.5;exitY=1;exitDx=0;exitDy=0;" edge="1" parent="1" source="5d2195bd80daf111-15" target="TSLDRbt6V7hRxiRLUqcx-14">
          <mxGeometry relative="1" as="geometry" />
        </mxCell>
        <mxCell id="TSLDRbt6V7hRxiRLUqcx-23" style="edgeStyle=orthogonalEdgeStyle;rounded=0;orthogonalLoop=1;jettySize=auto;html=1;exitX=0.5;exitY=1;exitDx=0;exitDy=0;" edge="1" parent="1" source="5d2195bd80daf111-15" target="TSLDRbt6V7hRxiRLUqcx-19">
          <mxGeometry relative="1" as="geometry" />
        </mxCell>
        <mxCell id="TSLDRbt6V7hRxiRLUqcx-27" style="edgeStyle=orthogonalEdgeStyle;rounded=0;orthogonalLoop=1;jettySize=auto;html=1;exitX=0.5;exitY=1;exitDx=0;exitDy=0;entryX=0.547;entryY=0.007;entryDx=0;entryDy=0;entryPerimeter=0;" edge="1" parent="1" source="5d2195bd80daf111-15" target="TSLDRbt6V7hRxiRLUqcx-24">
          <mxGeometry relative="1" as="geometry" />
        </mxCell>
        <mxCell id="TSLDRbt6V7hRxiRLUqcx-39" style="edgeStyle=orthogonalEdgeStyle;rounded=0;orthogonalLoop=1;jettySize=auto;html=1;exitX=0.5;exitY=1;exitDx=0;exitDy=0;entryX=0.5;entryY=0;entryDx=0;entryDy=0;" edge="1" parent="1" source="5d2195bd80daf111-15" target="TSLDRbt6V7hRxiRLUqcx-37">
          <mxGeometry relative="1" as="geometry" />
        </mxCell>
        <mxCell id="5d2195bd80daf111-15" value="&lt;p style=&quot;margin:0px;margin-top:4px;text-align:center;&quot;&gt;&lt;i&gt;&amp;lt;&amp;lt;database &amp;gt;&amp;gt;&lt;/i&gt;&lt;br&gt;&lt;b&gt;Supermarket&lt;/b&gt;&lt;/p&gt;&lt;hr size=&quot;1&quot;&gt;&lt;p style=&quot;margin:0px;margin-left:4px;&quot;&gt;+ name: Type&lt;br&gt;+ address: Type&lt;/p&gt;&lt;p style=&quot;margin:0px;margin-left:4px;&quot;&gt;+ phonenumber: Type&lt;br&gt;&lt;/p&gt;&lt;p style=&quot;margin:0px;margin-left:4px;&quot;&gt;&lt;br&gt;&lt;/p&gt;" style="verticalAlign=top;align=left;overflow=fill;fontSize=12;fontFamily=Helvetica;html=1;rounded=0;shadow=0;comic=0;labelBackgroundColor=none;strokeWidth=1" parent="1" vertex="1">
          <mxGeometry x="1200" y="320" width="190" height="140" as="geometry" />
        </mxCell>
        <mxCell id="5d2195bd80daf111-21" style="edgeStyle=orthogonalEdgeStyle;rounded=0;html=1;labelBackgroundColor=none;startFill=0;endArrow=open;endFill=0;endSize=10;fontFamily=Verdana;fontSize=10;dashed=1;" parent="1" source="5d2195bd80daf111-18" target="17acba5748e5396b-20" edge="1">
          <mxGeometry relative="1" as="geometry" />
        </mxCell>
        <mxCell id="5d2195bd80daf111-18" value="&lt;p style=&quot;margin:0px;margin-top:4px;text-align:center;&quot;&gt;&lt;i&gt;&amp;lt;&amp;lt;database&amp;gt;&amp;gt;&lt;/i&gt;&lt;br&gt;&lt;b&gt;Main&lt;/b&gt;&lt;/p&gt;&lt;hr size=&quot;1&quot;&gt;&lt;p style=&quot;margin:0px;margin-left:4px;&quot;&gt;+ User: Type&lt;br&gt;+ App: Type&lt;/p&gt;&lt;p style=&quot;margin:0px;margin-left:4px;&quot;&gt;&lt;br&gt;&lt;/p&gt;&lt;hr size=&quot;1&quot;&gt;&lt;p style=&quot;margin:0px;margin-left:4px;&quot;&gt;&lt;br&gt;&lt;/p&gt;" style="verticalAlign=top;align=left;overflow=fill;fontSize=12;fontFamily=Helvetica;html=1;rounded=0;shadow=0;comic=0;labelBackgroundColor=none;strokeWidth=1" parent="1" vertex="1">
          <mxGeometry x="740" y="40" width="190" height="140" as="geometry" />
        </mxCell>
        <mxCell id="TSLDRbt6V7hRxiRLUqcx-7" style="edgeStyle=orthogonalEdgeStyle;rounded=0;orthogonalLoop=1;jettySize=auto;html=1;exitX=0.5;exitY=0;exitDx=0;exitDy=0;entryX=0;entryY=0.5;entryDx=0;entryDy=0;" edge="1" parent="1" source="5d2195bd80daf111-19" target="17acba5748e5396b-33">
          <mxGeometry relative="1" as="geometry" />
        </mxCell>
        <mxCell id="5d2195bd80daf111-19" value="&lt;p style=&quot;margin:0px;margin-top:4px;text-align:center;&quot;&gt;&lt;i&gt;&amp;lt;&amp;lt;database &amp;gt;&amp;gt;&lt;/i&gt;&lt;br&gt;&lt;b&gt;CafÃ©&amp;nbsp;&lt;/b&gt;&lt;/p&gt;&lt;hr size=&quot;1&quot;&gt;&lt;p style=&quot;margin:0px;margin-left:4px;&quot;&gt;+ field1: Type&lt;br&gt;+ field2: Type&lt;/p&gt;&lt;hr size=&quot;1&quot;&gt;&lt;p style=&quot;margin:0px;margin-left:4px;&quot;&gt;&lt;br&gt;&lt;/p&gt;" style="verticalAlign=top;align=left;overflow=fill;fontSize=12;fontFamily=Helvetica;html=1;rounded=0;shadow=0;comic=0;labelBackgroundColor=none;strokeWidth=1" parent="1" vertex="1">
          <mxGeometry x="340" y="400" width="190" height="140" as="geometry" />
        </mxCell>
        <mxCell id="TSLDRbt6V7hRxiRLUqcx-9" style="edgeStyle=orthogonalEdgeStyle;rounded=0;orthogonalLoop=1;jettySize=auto;html=1;exitX=0.5;exitY=0;exitDx=0;exitDy=0;entryX=0;entryY=0.5;entryDx=0;entryDy=0;" edge="1" parent="1" source="5d2195bd80daf111-20" target="17acba5748e5396b-33">
          <mxGeometry relative="1" as="geometry" />
        </mxCell>
        <mxCell id="5d2195bd80daf111-20" value="&lt;p style=&quot;margin:0px;margin-top:4px;text-align:center;&quot;&gt;&lt;i&gt;&amp;lt;&amp;lt;&lt;/i&gt;&lt;i&gt;database&lt;/i&gt;&lt;i&gt;&amp;gt;&amp;gt;&lt;/i&gt;&lt;br&gt;&lt;b&gt;Gim&lt;/b&gt;&lt;/p&gt;&lt;hr size=&quot;1&quot;&gt;&lt;p style=&quot;margin:0px;margin-left:4px;&quot;&gt;+ field1: Type&lt;br&gt;+ field2: Type&lt;/p&gt;&lt;hr size=&quot;1&quot;&gt;&lt;p style=&quot;margin:0px;margin-left:4px;&quot;&gt;&lt;br&gt;&lt;/p&gt;" style="verticalAlign=top;align=left;overflow=fill;fontSize=12;fontFamily=Helvetica;html=1;rounded=0;shadow=0;comic=0;labelBackgroundColor=none;strokeWidth=1" parent="1" vertex="1">
          <mxGeometry x="60" y="400" width="190" height="140" as="geometry" />
        </mxCell>
        <mxCell id="TSLDRbt6V7hRxiRLUqcx-14" value="&lt;b&gt;Product&lt;/b&gt;" style="swimlane;html=1;fontStyle=0;childLayout=stackLayout;horizontal=1;startSize=26;fillColor=none;horizontalStack=0;resizeParent=1;resizeLast=0;collapsible=1;marginBottom=0;swimlaneFillColor=#ffffff;rounded=0;shadow=0;comic=0;labelBackgroundColor=none;strokeWidth=1;fontFamily=Verdana;fontSize=10;align=center;" vertex="1" parent="1">
          <mxGeometry x="1130" y="520" width="170" height="130" as="geometry">
            <mxRectangle x="350" y="42" width="60" height="30" as="alternateBounds" />
          </mxGeometry>
        </mxCell>
        <mxCell id="TSLDRbt6V7hRxiRLUqcx-15" value="+ name: type" style="text;html=1;strokeColor=none;fillColor=none;align=left;verticalAlign=top;spacingLeft=4;spacingRight=4;whiteSpace=wrap;overflow=hidden;rotatable=0;points=[[0,0.5],[1,0.5]];portConstraint=eastwest;" vertex="1" parent="TSLDRbt6V7hRxiRLUqcx-14">
          <mxGeometry y="26" width="170" height="26" as="geometry" />
        </mxCell>
        <mxCell id="TSLDRbt6V7hRxiRLUqcx-17" value="+ quality: type" style="text;html=1;strokeColor=none;fillColor=none;align=left;verticalAlign=top;spacingLeft=4;spacingRight=4;whiteSpace=wrap;overflow=hidden;rotatable=0;points=[[0,0.5],[1,0.5]];portConstraint=eastwest;" vertex="1" parent="TSLDRbt6V7hRxiRLUqcx-14">
          <mxGeometry y="52" width="170" height="26" as="geometry" />
        </mxCell>
        <mxCell id="TSLDRbt6V7hRxiRLUqcx-47" value="+ price: type" style="text;html=1;strokeColor=none;fillColor=none;align=left;verticalAlign=top;spacingLeft=4;spacingRight=4;whiteSpace=wrap;overflow=hidden;rotatable=0;points=[[0,0.5],[1,0.5]];portConstraint=eastwest;" vertex="1" parent="TSLDRbt6V7hRxiRLUqcx-14">
          <mxGeometry y="78" width="170" height="26" as="geometry" />
        </mxCell>
        <mxCell id="TSLDRbt6V7hRxiRLUqcx-19" value="&lt;b&gt;Category&amp;nbsp;&lt;/b&gt;" style="swimlane;html=1;fontStyle=0;childLayout=stackLayout;horizontal=1;startSize=20;fillColor=none;horizontalStack=0;resizeParent=1;resizeLast=0;collapsible=1;marginBottom=0;swimlaneFillColor=#ffffff;rounded=0;shadow=0;comic=0;labelBackgroundColor=none;strokeWidth=1;fontFamily=Verdana;fontSize=10;align=center;" vertex="1" parent="1">
          <mxGeometry x="930" y="520" width="160" height="110" as="geometry">
            <mxRectangle x="350" y="42" width="60" height="30" as="alternateBounds" />
          </mxGeometry>
        </mxCell>
        <mxCell id="TSLDRbt6V7hRxiRLUqcx-20" value="+ name: type" style="text;html=1;strokeColor=none;fillColor=none;align=left;verticalAlign=top;spacingLeft=4;spacingRight=4;whiteSpace=wrap;overflow=hidden;rotatable=0;points=[[0,0.5],[1,0.5]];portConstraint=eastwest;" vertex="1" parent="TSLDRbt6V7hRxiRLUqcx-19">
          <mxGeometry y="20" width="160" height="26" as="geometry" />
        </mxCell>
        <mxCell id="TSLDRbt6V7hRxiRLUqcx-24" value="&lt;b&gt;order&lt;/b&gt;" style="swimlane;html=1;fontStyle=0;childLayout=stackLayout;horizontal=1;startSize=26;fillColor=none;horizontalStack=0;resizeParent=1;resizeLast=0;collapsible=1;marginBottom=0;swimlaneFillColor=#ffffff;rounded=0;shadow=0;comic=0;labelBackgroundColor=none;strokeWidth=1;fontFamily=Verdana;fontSize=10;align=center;" vertex="1" parent="1">
          <mxGeometry x="1320" y="520" width="160" height="110" as="geometry">
            <mxRectangle x="350" y="42" width="60" height="30" as="alternateBounds" />
          </mxGeometry>
        </mxCell>
        <mxCell id="TSLDRbt6V7hRxiRLUqcx-25" value="+ number: type" style="text;html=1;strokeColor=none;fillColor=none;align=left;verticalAlign=top;spacingLeft=4;spacingRight=4;whiteSpace=wrap;overflow=hidden;rotatable=0;points=[[0,0.5],[1,0.5]];portConstraint=eastwest;" vertex="1" parent="TSLDRbt6V7hRxiRLUqcx-24">
          <mxGeometry y="26" width="160" height="26" as="geometry" />
        </mxCell>
        <mxCell id="TSLDRbt6V7hRxiRLUqcx-30" value="Advertisement&amp;nbsp;" style="swimlane;html=1;fontStyle=0;childLayout=stackLayout;horizontal=1;startSize=26;fillColor=none;horizontalStack=0;resizeParent=1;resizeLast=0;collapsible=1;marginBottom=0;swimlaneFillColor=#ffffff;rounded=0;shadow=0;comic=0;labelBackgroundColor=none;strokeWidth=1;fontFamily=Verdana;fontSize=10;align=center;" vertex="1" parent="1">
          <mxGeometry x="1040" y="165" width="160" height="110" as="geometry">
            <mxRectangle x="350" y="42" width="60" height="30" as="alternateBounds" />
          </mxGeometry>
        </mxCell>
        <mxCell id="TSLDRbt6V7hRxiRLUqcx-31" value="+ titel: type" style="text;html=1;strokeColor=none;fillColor=none;align=left;verticalAlign=top;spacingLeft=4;spacingRight=4;whiteSpace=wrap;overflow=hidden;rotatable=0;points=[[0,0.5],[1,0.5]];portConstraint=eastwest;" vertex="1" parent="TSLDRbt6V7hRxiRLUqcx-30">
          <mxGeometry y="26" width="160" height="26" as="geometry" />
        </mxCell>
        <mxCell id="TSLDRbt6V7hRxiRLUqcx-32" value="+ description: type" style="text;html=1;strokeColor=none;fillColor=none;align=left;verticalAlign=top;spacingLeft=4;spacingRight=4;whiteSpace=wrap;overflow=hidden;rotatable=0;points=[[0,0.5],[1,0.5]];portConstraint=eastwest;" vertex="1" parent="TSLDRbt6V7hRxiRLUqcx-30">
          <mxGeometry y="52" width="160" height="26" as="geometry" />
        </mxCell>
        <mxCell id="TSLDRbt6V7hRxiRLUqcx-33" value="+ img: type" style="text;html=1;strokeColor=none;fillColor=none;align=left;verticalAlign=top;spacingLeft=4;spacingRight=4;whiteSpace=wrap;overflow=hidden;rotatable=0;points=[[0,0.5],[1,0.5]];portConstraint=eastwest;" vertex="1" parent="TSLDRbt6V7hRxiRLUqcx-30">
          <mxGeometry y="78" width="160" height="26" as="geometry" />
        </mxCell>
        <mxCell id="TSLDRbt6V7hRxiRLUqcx-35" style="edgeStyle=orthogonalEdgeStyle;rounded=0;orthogonalLoop=1;jettySize=auto;html=1;exitX=0;exitY=0.5;exitDx=0;exitDy=0;" edge="1" parent="1" source="TSLDRbt6V7hRxiRLUqcx-32" target="5d2195bd80daf111-18">
          <mxGeometry relative="1" as="geometry">
            <Array as="points">
              <mxPoint x="990" y="115" />
              <mxPoint x="990" y="115" />
            </Array>
          </mxGeometry>
        </mxCell>
        <mxCell id="TSLDRbt6V7hRxiRLUqcx-37" value="&lt;b&gt;Customer&amp;nbsp;&lt;/b&gt;" style="swimlane;html=1;fontStyle=0;childLayout=stackLayout;horizontal=1;startSize=26;fillColor=none;horizontalStack=0;resizeParent=1;resizeLast=0;collapsible=1;marginBottom=0;swimlaneFillColor=#ffffff;rounded=0;shadow=0;comic=0;labelBackgroundColor=none;strokeWidth=1;fontFamily=Verdana;fontSize=10;align=center;" vertex="1" parent="1">
          <mxGeometry x="1500" y="520" width="160" height="140" as="geometry">
            <mxRectangle x="350" y="42" width="60" height="30" as="alternateBounds" />
          </mxGeometry>
        </mxCell>
        <mxCell id="TSLDRbt6V7hRxiRLUqcx-38" value="+ name: type" style="text;html=1;strokeColor=none;fillColor=none;align=left;verticalAlign=top;spacingLeft=4;spacingRight=4;whiteSpace=wrap;overflow=hidden;rotatable=0;points=[[0,0.5],[1,0.5]];portConstraint=eastwest;" vertex="1" parent="TSLDRbt6V7hRxiRLUqcx-37">
          <mxGeometry y="26" width="160" height="26" as="geometry" />
        </mxCell>
        <mxCell id="TSLDRbt6V7hRxiRLUqcx-40" value="+ address: type" style="text;html=1;strokeColor=none;fillColor=none;align=left;verticalAlign=top;spacingLeft=4;spacingRight=4;whiteSpace=wrap;overflow=hidden;rotatable=0;points=[[0,0.5],[1,0.5]];portConstraint=eastwest;" vertex="1" parent="TSLDRbt6V7hRxiRLUqcx-37">
          <mxGeometry y="52" width="160" height="26" as="geometry" />
        </mxCell>
        <mxCell id="TSLDRbt6V7hRxiRLUqcx-41" value="+ phone: type" style="text;html=1;strokeColor=none;fillColor=none;align=left;verticalAlign=top;spacingLeft=4;spacingRight=4;whiteSpace=wrap;overflow=hidden;rotatable=0;points=[[0,0.5],[1,0.5]];portConstraint=eastwest;" vertex="1" parent="TSLDRbt6V7hRxiRLUqcx-37">
          <mxGeometry y="78" width="160" height="26" as="geometry" />
        </mxCell>
        <mxCell id="TSLDRbt6V7hRxiRLUqcx-44" value="+ debt: type" style="text;html=1;strokeColor=none;fillColor=none;align=left;verticalAlign=top;spacingLeft=4;spacingRight=4;whiteSpace=wrap;overflow=hidden;rotatable=0;points=[[0,0.5],[1,0.5]];portConstraint=eastwest;" vertex="1" parent="TSLDRbt6V7hRxiRLUqcx-37">
          <mxGeometry y="104" width="160" height="26" as="geometry" />
        </mxCell>
        <mxCell id="TSLDRbt6V7hRxiRLUqcx-55" style="edgeStyle=orthogonalEdgeStyle;rounded=0;orthogonalLoop=1;jettySize=auto;html=1;exitX=0;exitY=1;exitDx=0;exitDy=0;entryX=1.021;entryY=0.049;entryDx=0;entryDy=0;entryPerimeter=0;" edge="1" parent="1" source="TSLDRbt6V7hRxiRLUqcx-48" target="5d2195bd80daf111-18">
          <mxGeometry relative="1" as="geometry">
            <Array as="points">
              <mxPoint x="985" y="85" />
              <mxPoint x="985" y="47" />
            </Array>
          </mxGeometry>
        </mxCell>
        <mxCell id="TSLDRbt6V7hRxiRLUqcx-48" value="&lt;b&gt;future system&lt;/b&gt;" style="swimlane;html=1;fontStyle=0;childLayout=stackLayout;horizontal=1;startSize=26;fillColor=none;horizontalStack=0;resizeParent=1;resizeLast=0;collapsible=1;marginBottom=0;swimlaneFillColor=#ffffff;rounded=0;shadow=0;comic=0;labelBackgroundColor=none;strokeWidth=1;fontFamily=Verdana;fontSize=10;align=center;" vertex="1" parent="1">
          <mxGeometry x="1040" y="-30" width="160" height="115" as="geometry">
            <mxRectangle x="350" y="42" width="60" height="30" as="alternateBounds" />
          </mxGeometry>
        </mxCell>
        <mxCell id="TSLDRbt6V7hRxiRLUqcx-49" value="+ name: type" style="text;html=1;strokeColor=none;fillColor=none;align=left;verticalAlign=top;spacingLeft=4;spacingRight=4;whiteSpace=wrap;overflow=hidden;rotatable=0;points=[[0,0.5],[1,0.5]];portConstraint=eastwest;" vertex="1" parent="TSLDRbt6V7hRxiRLUqcx-48">
          <mxGeometry y="26" width="160" height="26" as="geometry" />
        </mxCell>
        <mxCell id="TSLDRbt6V7hRxiRLUqcx-50" value="+ state: type" style="text;html=1;strokeColor=none;fillColor=none;align=left;verticalAlign=top;spacingLeft=4;spacingRight=4;whiteSpace=wrap;overflow=hidden;rotatable=0;points=[[0,0.5],[1,0.5]];portConstraint=eastwest;" vertex="1" parent="TSLDRbt6V7hRxiRLUqcx-48">
          <mxGeometry y="52" width="160" height="26" as="geometry" />
        </mxCell>
        <mxCell id="TSLDRbt6V7hRxiRLUqcx-68" style="edgeStyle=orthogonalEdgeStyle;curved=1;rounded=0;orthogonalLoop=1;jettySize=auto;html=1;exitX=0;exitY=0.5;exitDx=0;exitDy=0;entryX=0.375;entryY=1;entryDx=0;entryDy=0;entryPerimeter=0;" edge="1" parent="1" source="TSLDRbt6V7hRxiRLUqcx-61" target="TSLDRbt6V7hRxiRLUqcx-65">
          <mxGeometry relative="1" as="geometry" />
        </mxCell>
        <mxCell id="TSLDRbt6V7hRxiRLUqcx-70" style="edgeStyle=orthogonalEdgeStyle;curved=1;rounded=0;orthogonalLoop=1;jettySize=auto;html=1;exitX=0.5;exitY=1;exitDx=0;exitDy=0;entryX=0.5;entryY=0;entryDx=0;entryDy=0;" edge="1" parent="1" source="TSLDRbt6V7hRxiRLUqcx-61" target="TSLDRbt6V7hRxiRLUqcx-69">
          <mxGeometry relative="1" as="geometry" />
        </mxCell>
        <mxCell id="TSLDRbt6V7hRxiRLUqcx-81" style="edgeStyle=orthogonalEdgeStyle;curved=1;rounded=0;orthogonalLoop=1;jettySize=auto;html=1;exitX=1;exitY=0.5;exitDx=0;exitDy=0;entryX=0.348;entryY=1.153;entryDx=0;entryDy=0;entryPerimeter=0;" edge="1" parent="1" source="TSLDRbt6V7hRxiRLUqcx-61" target="TSLDRbt6V7hRxiRLUqcx-73">
          <mxGeometry relative="1" as="geometry" />
        </mxCell>
        <mxCell id="TSLDRbt6V7hRxiRLUqcx-83" style="edgeStyle=orthogonalEdgeStyle;curved=1;rounded=0;orthogonalLoop=1;jettySize=auto;html=1;exitX=1;exitY=0.5;exitDx=0;exitDy=0;entryX=0.5;entryY=1;entryDx=0;entryDy=0;" edge="1" parent="1" source="TSLDRbt6V7hRxiRLUqcx-61" target="TSLDRbt6V7hRxiRLUqcx-82">
          <mxGeometry relative="1" as="geometry" />
        </mxCell>
        <mxCell id="TSLDRbt6V7hRxiRLUqcx-86" style="edgeStyle=orthogonalEdgeStyle;curved=1;rounded=0;orthogonalLoop=1;jettySize=auto;html=1;exitX=1;exitY=0.5;exitDx=0;exitDy=0;entryX=0;entryY=0.75;entryDx=0;entryDy=0;" edge="1" parent="1" source="TSLDRbt6V7hRxiRLUqcx-61" target="TSLDRbt6V7hRxiRLUqcx-76">
          <mxGeometry relative="1" as="geometry" />
        </mxCell>
        <mxCell id="TSLDRbt6V7hRxiRLUqcx-89" style="edgeStyle=orthogonalEdgeStyle;curved=1;rounded=0;orthogonalLoop=1;jettySize=auto;html=1;exitX=0.5;exitY=1;exitDx=0;exitDy=0;entryX=0;entryY=0.75;entryDx=0;entryDy=0;" edge="1" parent="1" source="TSLDRbt6V7hRxiRLUqcx-61" target="TSLDRbt6V7hRxiRLUqcx-71">
          <mxGeometry relative="1" as="geometry" />
        </mxCell>
        <mxCell id="TSLDRbt6V7hRxiRLUqcx-93" style="edgeStyle=orthogonalEdgeStyle;curved=1;rounded=0;orthogonalLoop=1;jettySize=auto;html=1;exitX=1;exitY=0.5;exitDx=0;exitDy=0;" edge="1" parent="1" source="TSLDRbt6V7hRxiRLUqcx-61" target="TSLDRbt6V7hRxiRLUqcx-63">
          <mxGeometry relative="1" as="geometry" />
        </mxCell>
        <mxCell id="TSLDRbt6V7hRxiRLUqcx-94" style="edgeStyle=orthogonalEdgeStyle;curved=1;rounded=0;orthogonalLoop=1;jettySize=auto;html=1;exitX=0.5;exitY=1;exitDx=0;exitDy=0;entryX=1;entryY=0.75;entryDx=0;entryDy=0;" edge="1" parent="1" source="TSLDRbt6V7hRxiRLUqcx-61" target="TSLDRbt6V7hRxiRLUqcx-92">
          <mxGeometry relative="1" as="geometry" />
        </mxCell>
        <mxCell id="TSLDRbt6V7hRxiRLUqcx-95" style="edgeStyle=orthogonalEdgeStyle;curved=1;rounded=0;orthogonalLoop=1;jettySize=auto;html=1;exitX=0;exitY=0.5;exitDx=0;exitDy=0;entryX=0.839;entryY=0.005;entryDx=0;entryDy=0;entryPerimeter=0;" edge="1" parent="1" source="TSLDRbt6V7hRxiRLUqcx-61" target="TSLDRbt6V7hRxiRLUqcx-91">
          <mxGeometry relative="1" as="geometry" />
        </mxCell>
        <mxCell id="TSLDRbt6V7hRxiRLUqcx-124" value="" style="edgeStyle=orthogonalEdgeStyle;curved=1;rounded=0;orthogonalLoop=1;jettySize=auto;html=1;fontSize=14;" edge="1" parent="1" source="TSLDRbt6V7hRxiRLUqcx-61" target="TSLDRbt6V7hRxiRLUqcx-123">
          <mxGeometry relative="1" as="geometry" />
        </mxCell>
        <mxCell id="TSLDRbt6V7hRxiRLUqcx-61" value="&lt;b&gt;Main&lt;/b&gt;" style="ellipse;whiteSpace=wrap;html=1;" vertex="1" parent="1">
          <mxGeometry x="350" y="-430" width="120" height="50" as="geometry" />
        </mxCell>
        <mxCell id="TSLDRbt6V7hRxiRLUqcx-63" value="Users" style="rounded=1;whiteSpace=wrap;html=1;" vertex="1" parent="1">
          <mxGeometry x="500" y="-530" width="80" height="20" as="geometry" />
        </mxCell>
        <mxCell id="TSLDRbt6V7hRxiRLUqcx-65" value="organizations" style="rounded=1;whiteSpace=wrap;html=1;" vertex="1" parent="1">
          <mxGeometry x="250" y="-520" width="80" height="20" as="geometry" />
        </mxCell>
        <mxCell id="TSLDRbt6V7hRxiRLUqcx-97" value="" style="edgeStyle=orthogonalEdgeStyle;curved=1;rounded=0;orthogonalLoop=1;jettySize=auto;html=1;" edge="1" parent="1" source="TSLDRbt6V7hRxiRLUqcx-69" target="TSLDRbt6V7hRxiRLUqcx-96">
          <mxGeometry relative="1" as="geometry" />
        </mxCell>
        <mxCell id="TSLDRbt6V7hRxiRLUqcx-112" value="" style="edgeStyle=orthogonalEdgeStyle;curved=1;rounded=0;orthogonalLoop=1;jettySize=auto;html=1;" edge="1" parent="1" source="TSLDRbt6V7hRxiRLUqcx-69" target="TSLDRbt6V7hRxiRLUqcx-111">
          <mxGeometry relative="1" as="geometry" />
        </mxCell>
        <mxCell id="TSLDRbt6V7hRxiRLUqcx-118" value="" style="edgeStyle=orthogonalEdgeStyle;curved=1;rounded=0;orthogonalLoop=1;jettySize=auto;html=1;" edge="1" parent="1" source="TSLDRbt6V7hRxiRLUqcx-69" target="TSLDRbt6V7hRxiRLUqcx-117">
          <mxGeometry relative="1" as="geometry" />
        </mxCell>
        <mxCell id="TSLDRbt6V7hRxiRLUqcx-69" value="Apps" style="rounded=1;whiteSpace=wrap;html=1;" vertex="1" parent="1">
          <mxGeometry x="370" y="-300" width="80" height="20" as="geometry" />
        </mxCell>
        <mxCell id="TSLDRbt6V7hRxiRLUqcx-71" value="Sub Apps" style="rounded=1;whiteSpace=wrap;html=1;" vertex="1" parent="1">
          <mxGeometry x="470" y="-330" width="80" height="20" as="geometry" />
        </mxCell>
        <mxCell id="TSLDRbt6V7hRxiRLUqcx-73" value="&lt;span style=&quot;font-family: Verdana; font-size: 10px;&quot;&gt;Advertisement&amp;nbsp;&lt;/span&gt;" style="rounded=1;whiteSpace=wrap;html=1;" vertex="1" parent="1">
          <mxGeometry x="690" y="-460" width="80" height="20" as="geometry" />
        </mxCell>
        <mxCell id="TSLDRbt6V7hRxiRLUqcx-76" value="future system" style="rounded=1;whiteSpace=wrap;html=1;" vertex="1" parent="1">
          <mxGeometry x="710" y="-400" width="80" height="20" as="geometry" />
        </mxCell>
        <mxCell id="TSLDRbt6V7hRxiRLUqcx-82" value="&lt;font face=&quot;Verdana&quot;&gt;&lt;span style=&quot;font-size: 10px;&quot;&gt;Notifications&lt;/span&gt;&lt;/font&gt;" style="rounded=1;whiteSpace=wrap;html=1;" vertex="1" parent="1">
          <mxGeometry x="630" y="-500" width="80" height="20" as="geometry" />
        </mxCell>
        <mxCell id="TSLDRbt6V7hRxiRLUqcx-91" value="Payment&amp;nbsp;" style="rounded=1;whiteSpace=wrap;html=1;" vertex="1" parent="1">
          <mxGeometry x="190" y="-380" width="80" height="20" as="geometry" />
        </mxCell>
        <mxCell id="TSLDRbt6V7hRxiRLUqcx-92" value="Store" style="rounded=1;whiteSpace=wrap;html=1;" vertex="1" parent="1">
          <mxGeometry x="270" y="-330" width="80" height="20" as="geometry" />
        </mxCell>
        <mxCell id="TSLDRbt6V7hRxiRLUqcx-101" value="" style="edgeStyle=orthogonalEdgeStyle;curved=1;rounded=0;orthogonalLoop=1;jettySize=auto;html=1;" edge="1" parent="1" source="TSLDRbt6V7hRxiRLUqcx-96" target="TSLDRbt6V7hRxiRLUqcx-100">
          <mxGeometry relative="1" as="geometry" />
        </mxCell>
        <mxCell id="TSLDRbt6V7hRxiRLUqcx-107" style="edgeStyle=orthogonalEdgeStyle;curved=1;rounded=0;orthogonalLoop=1;jettySize=auto;html=1;exitX=0;exitY=0.5;exitDx=0;exitDy=0;entryX=1;entryY=0.5;entryDx=0;entryDy=0;" edge="1" parent="1" source="TSLDRbt6V7hRxiRLUqcx-96" target="TSLDRbt6V7hRxiRLUqcx-103">
          <mxGeometry relative="1" as="geometry" />
        </mxCell>
        <mxCell id="TSLDRbt6V7hRxiRLUqcx-109" style="edgeStyle=orthogonalEdgeStyle;curved=1;rounded=0;orthogonalLoop=1;jettySize=auto;html=1;exitX=1;exitY=1;exitDx=0;exitDy=0;entryX=0.5;entryY=0;entryDx=0;entryDy=0;" edge="1" parent="1" source="TSLDRbt6V7hRxiRLUqcx-96" target="TSLDRbt6V7hRxiRLUqcx-102">
          <mxGeometry relative="1" as="geometry" />
        </mxCell>
        <mxCell id="TSLDRbt6V7hRxiRLUqcx-110" style="edgeStyle=orthogonalEdgeStyle;curved=1;rounded=0;orthogonalLoop=1;jettySize=auto;html=1;exitX=0;exitY=1;exitDx=0;exitDy=0;" edge="1" parent="1" source="TSLDRbt6V7hRxiRLUqcx-96" target="TSLDRbt6V7hRxiRLUqcx-104">
          <mxGeometry relative="1" as="geometry" />
        </mxCell>
        <mxCell id="TSLDRbt6V7hRxiRLUqcx-96" value="&#xa;&lt;b style=&quot;color: rgb(0, 0, 0); font-family: Helvetica; font-size: 12px; font-style: normal; font-variant-ligatures: normal; font-variant-caps: normal; letter-spacing: normal; orphans: 2; text-align: center; text-indent: 0px; text-transform: none; widows: 2; word-spacing: 0px; -webkit-text-stroke-width: 0px; background-color: rgb(248, 249, 250); text-decoration-thickness: initial; text-decoration-style: initial; text-decoration-color: initial;&quot;&gt;Supermarket&lt;/b&gt;&#xa;&#xa;" style="ellipse;whiteSpace=wrap;html=1;rounded=1;" vertex="1" parent="1">
          <mxGeometry x="510" y="-160" width="100" height="40" as="geometry" />
        </mxCell>
        <mxCell id="TSLDRbt6V7hRxiRLUqcx-98" style="edgeStyle=orthogonalEdgeStyle;curved=1;rounded=0;orthogonalLoop=1;jettySize=auto;html=1;exitX=0.5;exitY=1;exitDx=0;exitDy=0;" edge="1" parent="1" source="TSLDRbt6V7hRxiRLUqcx-96" target="TSLDRbt6V7hRxiRLUqcx-96">
          <mxGeometry relative="1" as="geometry" />
        </mxCell>
        <mxCell id="TSLDRbt6V7hRxiRLUqcx-100" value="&lt;span style=&quot;font-family: Verdana; font-size: 10px;&quot;&gt;Category&amp;nbsp;&lt;/span&gt;" style="whiteSpace=wrap;html=1;rounded=1;" vertex="1" parent="1">
          <mxGeometry x="520" y="-50" width="80" height="20" as="geometry" />
        </mxCell>
        <mxCell id="TSLDRbt6V7hRxiRLUqcx-102" value="Order&amp;nbsp;" style="whiteSpace=wrap;html=1;rounded=1;" vertex="1" parent="1">
          <mxGeometry x="640" y="-90" width="80" height="20" as="geometry" />
        </mxCell>
        <mxCell id="TSLDRbt6V7hRxiRLUqcx-103" value="&lt;span style=&quot;font-family: Verdana; font-size: 10px;&quot;&gt;Product&lt;/span&gt;" style="whiteSpace=wrap;html=1;rounded=1;" vertex="1" parent="1">
          <mxGeometry x="360" y="-150" width="80" height="20" as="geometry" />
        </mxCell>
        <mxCell id="TSLDRbt6V7hRxiRLUqcx-104" value="Customer" style="whiteSpace=wrap;html=1;rounded=1;" vertex="1" parent="1">
          <mxGeometry x="395" y="-90" width="80" height="20" as="geometry" />
        </mxCell>
        <mxCell id="TSLDRbt6V7hRxiRLUqcx-106" style="edgeStyle=orthogonalEdgeStyle;curved=1;rounded=0;orthogonalLoop=1;jettySize=auto;html=1;exitX=0.5;exitY=1;exitDx=0;exitDy=0;" edge="1" parent="1" source="TSLDRbt6V7hRxiRLUqcx-102" target="TSLDRbt6V7hRxiRLUqcx-102">
          <mxGeometry relative="1" as="geometry" />
        </mxCell>
        <mxCell id="TSLDRbt6V7hRxiRLUqcx-114" value="" style="edgeStyle=orthogonalEdgeStyle;curved=1;rounded=0;orthogonalLoop=1;jettySize=auto;html=1;" edge="1" parent="1" source="TSLDRbt6V7hRxiRLUqcx-111" target="TSLDRbt6V7hRxiRLUqcx-113">
          <mxGeometry relative="1" as="geometry" />
        </mxCell>
        <mxCell id="TSLDRbt6V7hRxiRLUqcx-111" value="CafÃ©&amp;nbsp;" style="ellipse;whiteSpace=wrap;html=1;rounded=1;" vertex="1" parent="1">
          <mxGeometry x="160" y="-160" width="90" height="40" as="geometry" />
        </mxCell>
        <mxCell id="TSLDRbt6V7hRxiRLUqcx-113" value="" style="whiteSpace=wrap;html=1;rounded=1;" vertex="1" parent="1">
          <mxGeometry x="167.5" y="-50" width="75" height="20" as="geometry" />
        </mxCell>
        <mxCell id="TSLDRbt6V7hRxiRLUqcx-120" value="" style="edgeStyle=orthogonalEdgeStyle;curved=1;rounded=0;orthogonalLoop=1;jettySize=auto;html=1;" edge="1" parent="1" source="TSLDRbt6V7hRxiRLUqcx-117" target="TSLDRbt6V7hRxiRLUqcx-119">
          <mxGeometry relative="1" as="geometry" />
        </mxCell>
        <mxCell id="TSLDRbt6V7hRxiRLUqcx-117" value="Fitness Gym" style="ellipse;whiteSpace=wrap;html=1;rounded=1;" vertex="1" parent="1">
          <mxGeometry x="720" y="-200" width="80" height="40" as="geometry" />
        </mxCell>
        <mxCell id="TSLDRbt6V7hRxiRLUqcx-119" value="" style="whiteSpace=wrap;html=1;rounded=1;" vertex="1" parent="1">
          <mxGeometry x="735" y="-120" width="50" height="20" as="geometry" />
        </mxCell>
        <mxCell id="TSLDRbt6V7hRxiRLUqcx-122" value="&amp;nbsp;&lt;font size=&quot;3&quot;&gt;- Joun in system&amp;nbsp;&lt;br&gt;&lt;ul&gt;&lt;li&gt;&lt;font size=&quot;3&quot;&gt;User have tow method&#39;s &lt;b&gt;Personal&lt;/b&gt;&amp;nbsp; or &lt;b&gt;Organization&lt;/b&gt;&amp;nbsp;&lt;/font&gt;&lt;/li&gt;&lt;/ul&gt;&lt;/font&gt;" style="whiteSpace=wrap;html=1;align=left;" vertex="1" parent="1">
          <mxGeometry x="1110" y="-730" width="380" height="160" as="geometry" />
        </mxCell>
        <mxCell id="TSLDRbt6V7hRxiRLUqcx-123" value="invitations" style="rounded=1;whiteSpace=wrap;html=1;" vertex="1" parent="1">
          <mxGeometry x="375" y="-562" width="70" height="25" as="geometry" />
        </mxCell>
      </root>
    </mxGraphModel>
  </diagram>
</mxfile>
